<?xml version="1.0" encoding="utf-8"?>
<!-- Generator: Adobe Illustrator 25.0.1, SVG Export Plug-In . SVG Version: 6.00 Build 0)  -->
<svg version="1.1" id="Layer_1" xmlns="http://www.w3.org/2000/svg" xmlns:xlink="http://www.w3.org/1999/xlink" x="0px" y="0px"
	 viewBox="0 0 745.17 314.28" enable-background="new 0 0 745.17 314.28" xml:space="preserve">
<g>
	<g>
		<path fill="#003468" d="M725.55,52.45c-14.24,0-30.45,0.02-30.45,0.02V202.3c0,44.45,1,71.87-12.11,90.98
			c-0.44,0.65-0.89,1.28-1.35,1.87c-0.02,0.02-0.02,0.04-0.02,0.06c-8.48,11.03-18.33,14.03-19.83,14.46
			c-1.59,0.46-4.89,1.3-4.44,3.35c0.41,1.94,3.67,1.56,11.55-0.46c4.7-1.18,9.66-3.35,12.9-4.91c0.63-0.28,1.28-0.56,1.96-0.91
			c24.88-12.57,33.95-30.38,39.14-46.36c4.28-13.16,4.81-30.29,5.55-45.06c0.65-13.14,0.15-28.29,0.15-39.45v-48.1
			c0-23.14,0.19-33.36,0.33-39.54c0,0,0.28-10.98,0.39-11.44c0.37-4.22,0.56-7.98,1.76-11.53c0.98-2.48,2.35-4.76,4.37-6.39
			c3.83-3.11,9.72-1.56,9.72-4.09C745.21,51.75,739.78,52.45,725.55,52.45z"/>
		<path fill="#003468" d="M445.31,67.39c-4.55-3.63-16.5-14.79-50.28-14.79c-12.42,0-54.26-0.04-54.26-0.04
			c-14.24,0-19.66-0.7-19.66,2.31c0,2.55,5.89,1,9.72,4.11c1.68,1.35,2.91,3.15,3.85,5.15c2.31,6.52,2.7,17.68,2.78,22.11
			c0.44,7.74,0.81,19.74,0.81,41.69v45.71c0,16.01,0,36.95-0.41,48.04c-0.02,0.98-0.06,2.3-0.11,3.78l0,0c0,0.04,0,0.06,0,0.09
			c-0.13,2.59-0.33,5.74-0.7,8.89c-0.04,0.31-0.07,0.65-0.11,0.94c-0.54,3.81-1.06,6.5-2.04,8.79c-0.91,1.85-2.09,3.54-3.67,4.81
			c-3.83,3.11-9.72,1.56-9.72,4.11c0,3,5.42,2.3,19.64,2.3c14.24,0,30.34-0.02,30.34-0.02l0.04-185.64c0-2.85,0.81-4.41,2.17-4.92
			c2.43-0.78,6.48-1.04,10.53-1.04c6.22,0,17.29,1.56,27.03,10.13c15.13,12.98,16.16,30.38,15.96,38.95
			c-0.39,15.33-5.33,25.57-11.35,32.42c-12.55,12.4-22.22,10.92-23.85,11c-2.17,0.09-5.18,0.52-5.02,2.43
			c0.2,2.09,3.31,2.24,11.46,1.78c8.44-0.5,14.7-2.48,16.72-3.22c23.31-7.61,47.23-26.55,45.64-58.95
			C459.97,81.31,451.06,71.98,445.31,67.39z"/>
		<path fill="#003468" d="M626.92,52.36c-12.2-0.07-16.94-0.48-16.94,2.31c0,2.55,5.89,1,9.72,4.11c1.17,0.94,2.09,2.11,2.89,3.39
			c1.07,2.02,1.85,4.87,2.39,7.94c1.46,8.18,1.37,17.96,1.37,17.96h-0.02l0.02,100.07C613.87,176.17,515.08,77.79,489.18,53.19
			c-0.91-0.83-2.35-1.37-3.48-1.13c-1.85,0.41-2.31,2.28-2.46,3.55l0.07,199.52c0,0,8.44,0,22.68,0c14.22,0,19.66,0.7,19.66-2.3
			c0-2.55-5.89-0.98-9.72-4.11c-0.89-0.72-1.65-1.56-2.31-2.48c-0.09-0.13-0.19-0.28-0.28-0.43c-0.02-0.02-0.04-0.04-0.04-0.06
			c-4.17-7.09-4-26.33-4-26.33h0.02V119.26c0,0,112.47,109.53,138.39,135.19c0.72,0.48,2.17,0.89,3.17,0.56c1.89-0.63,2-2.85,2.07-4
			h0.02L652.9,52.36C652.9,52.36,626.92,52.36,626.92,52.36z"/>
	</g>
	<g>
		
			<linearGradient id="SVGID_1_" gradientUnits="userSpaceOnUse" x1="59.3694" y1="166.1845" x2="338.0008" y2="225.4095" gradientTransform="matrix(1 0 0 -1 -43.8023 332.4731)">
			<stop  offset="5.494510e-03" style="stop-color:#FFFFFF"/>
			<stop  offset="0.456" style="stop-color:#E7D1A2"/>
			<stop  offset="0.5043" style="stop-color:#E6CF9F"/>
			<stop  offset="0.5458" style="stop-color:#E3CA96"/>
			<stop  offset="0.5849" style="stop-color:#DFC188"/>
			<stop  offset="0.6222" style="stop-color:#D9B475"/>
			<stop  offset="0.6264" style="stop-color:#D8B373"/>
			<stop  offset="0.6889" style="stop-color:#C19F66"/>
			<stop  offset="0.812" style="stop-color:#92764B"/>
			<stop  offset="0.9826" style="stop-color:#534225"/>
			<stop  offset="1" style="stop-color:#4D3D21"/>
		</linearGradient>
		<path fill="url(#SVGID_1_)" d="M257.49,105.27c-7.48-7.24-12.76-12.39-12.76-12.48C144.11,66.72,10.77,141.04,10.35,141.74
			c165.09-45.99,272.59-1,293.25,9.57L257.49,105.27z"/>
		
			<linearGradient id="SVGID_2_" gradientUnits="userSpaceOnUse" x1="77.608" y1="252.3553" x2="266.1315" y2="252.3553" gradientTransform="matrix(1 0 0 -1 -43.8023 332.4731)">
			<stop  offset="5.494510e-03" style="stop-color:#FFFFFF"/>
			<stop  offset="0.456" style="stop-color:#E7D1A2"/>
			<stop  offset="0.5043" style="stop-color:#E6CF9F"/>
			<stop  offset="0.5458" style="stop-color:#E3CA96"/>
			<stop  offset="0.5849" style="stop-color:#DFC188"/>
			<stop  offset="0.6222" style="stop-color:#D9B475"/>
			<stop  offset="0.6264" style="stop-color:#D8B373"/>
			<stop  offset="0.6889" style="stop-color:#C19F66"/>
			<stop  offset="0.812" style="stop-color:#92764B"/>
			<stop  offset="0.9826" style="stop-color:#534225"/>
			<stop  offset="1" style="stop-color:#4D3D21"/>
		</linearGradient>
		<path fill="url(#SVGID_2_)" d="M196.24,44.12c-1.11-0.96-1.78-1.54-1.83-1.59c-64.5-9.9-160.61,75.98-160.61,75.98
			C142,61.13,204.7,66.89,222.33,70.17L196.24,44.12z"/>
		
			<linearGradient id="SVGID_3_" gradientUnits="userSpaceOnUse" x1="43.8023" y1="151.8558" x2="315.1183" y2="151.8558" gradientTransform="matrix(1 0 0 -1 -43.8023 332.4731)">
			<stop  offset="5.494510e-03" style="stop-color:#FFFFFF"/>
			<stop  offset="0.456" style="stop-color:#E7D1A2"/>
			<stop  offset="0.5043" style="stop-color:#E6CF9F"/>
			<stop  offset="0.5458" style="stop-color:#E3CA96"/>
			<stop  offset="0.5849" style="stop-color:#DFC188"/>
			<stop  offset="0.6222" style="stop-color:#D9B475"/>
			<stop  offset="0.6264" style="stop-color:#D8B373"/>
			<stop  offset="0.6889" style="stop-color:#C19F66"/>
			<stop  offset="0.812" style="stop-color:#92764B"/>
			<stop  offset="0.9826" style="stop-color:#534225"/>
			<stop  offset="1" style="stop-color:#4D3D21"/>
		</linearGradient>
		<path fill="url(#SVGID_3_)" d="M228.33,227.46l42.99-42.93C259.63,169.45,194.78,102.05,0,151.81
			C0,151.81,175.86,136.69,228.33,227.46z"/>
		
			<linearGradient id="SVGID_4_" gradientUnits="userSpaceOnUse" x1="64.0006" y1="99.5007" x2="246.5442" y2="99.5007" gradientTransform="matrix(1 0 0 -1 -43.8023 332.4731)">
			<stop  offset="5.494510e-03" style="stop-color:#FFFFFF"/>
			<stop  offset="0.456" style="stop-color:#E7D1A2"/>
			<stop  offset="0.5043" style="stop-color:#E6CF9F"/>
			<stop  offset="0.5458" style="stop-color:#E3CA96"/>
			<stop  offset="0.5849" style="stop-color:#DFC188"/>
			<stop  offset="0.6222" style="stop-color:#D9B475"/>
			<stop  offset="0.6264" style="stop-color:#D8B373"/>
			<stop  offset="0.6889" style="stop-color:#C19F66"/>
			<stop  offset="0.812" style="stop-color:#92764B"/>
			<stop  offset="0.9826" style="stop-color:#534225"/>
			<stop  offset="1" style="stop-color:#4D3D21"/>
		</linearGradient>
		<path fill="url(#SVGID_4_)" d="M152.05,303.6l50.69-50.6c-5.52-10.18-56.58-97.51-182.54-90.24
			C20.62,162.77,127.02,180.27,152.05,303.6z"/>
		
			<linearGradient id="SVGID_5_" gradientUnits="userSpaceOnUse" x1="119.4301" y1="294.2519" x2="227.2901" y2="294.2519" gradientTransform="matrix(1 0 0 -1 -43.8023 332.4731)">
			<stop  offset="5.494510e-03" style="stop-color:#FFFFFF"/>
			<stop  offset="0.456" style="stop-color:#E7D1A2"/>
			<stop  offset="0.5043" style="stop-color:#E6CF9F"/>
			<stop  offset="0.5458" style="stop-color:#E3CA96"/>
			<stop  offset="0.5849" style="stop-color:#DFC188"/>
			<stop  offset="0.6222" style="stop-color:#D9B475"/>
			<stop  offset="0.6264" style="stop-color:#D8B373"/>
			<stop  offset="0.6889" style="stop-color:#C19F66"/>
			<stop  offset="0.812" style="stop-color:#92764B"/>
			<stop  offset="0.9826" style="stop-color:#534225"/>
			<stop  offset="1" style="stop-color:#4D3D21"/>
		</linearGradient>
		<path fill="url(#SVGID_5_)" d="M81.85,70.09l-6.22,6.35c0,0,69-51.73,107.86-45.04L152.05,0L81.85,70.09z"/>
	</g>
</g>
</svg>
